<svg xmlns="http://www.w3.org/2000/svg" version="1.1" xmlns:xlink="http://www.w3.org/1999/xlink" xmlns:svgjs="http://svgjs.dev/svgjs" viewBox="0 0 800 800"><g transform="matrix(1,0,0,1,0,0)"><polygon points="795,492.5 553.5,975.5 1036.5,975.5" stroke-width="4" stroke="#ff3895" fill="none" opacity="0.23" transform="rotate(100, 400, 400)"></polygon><polygon points="775.2500122070312,480.37499694824214 538.3250122070312,954.2249969482422 1012.1750122070313,954.2249969482422" stroke-width="4.6" stroke="#fa409c" fill="none" opacity="0.2685" transform="rotate(95, 400, 400)"></polygon><polygon points="755.5000244140625,468.2499938964844 523.1500244140625,932.9499938964843 987.8500244140625,932.9499938964843" stroke-width="5.2" stroke="#f447a3" fill="none" opacity="0.307" transform="rotate(90, 400, 400)"></polygon><polygon points="735.7500061035156,456.1250061035156 507.9750061035156,911.6750061035157 963.5250061035156,911.6750061035157" stroke-width="5.8" stroke="#ef4ea9" fill="none" opacity="0.34550000000000003" transform="rotate(85, 400, 400)"></polygon><polygon points="715.9999877929688,444.00000305175786 492.79998779296875,890.4000030517578 939.1999877929687,890.4000030517578" stroke-width="6.4" stroke="#e954af" fill="none" opacity="0.384" transform="rotate(80, 400, 400)"></polygon><polygon points="696.25,431.875 477.625,869.125 914.875,869.125" stroke-width="7" stroke="#e35ab5" fill="none" opacity="0.4225" transform="rotate(75, 400, 400)"></polygon><polygon points="676.4999816894531,419.74999694824214 462.4499816894531,847.8499969482422 890.5499816894531,847.8499969482422" stroke-width="7.6" stroke="#dd5fbb" fill="none" opacity="0.46099999999999997" transform="rotate(70, 400, 400)"></polygon><polygon points="656.7499938964844,407.6249938964844 447.2749938964844,826.5749938964843 866.2249938964844,826.5749938964843" stroke-width="8.2" stroke="#d764c1" fill="none" opacity="0.49950000000000006" transform="rotate(65, 400, 400)"></polygon><polygon points="637.0000061035156,395.5000061035156 432.1000061035156,805.3000061035157 841.9000061035156,805.3000061035157" stroke-width="8.8" stroke="#d169c6" fill="none" opacity="0.538" transform="rotate(60, 400, 400)"></polygon><polygon points="617.2499877929688,383.37500305175786 416.92498779296875,784.0250030517578 817.5749877929687,784.0250030517578" stroke-width="9.399999999999999" stroke="#ca6dcc" fill="none" opacity="0.5765" transform="rotate(55, 400, 400)"></polygon><polygon points="597.5,371.25 401.75,762.75 793.25,762.75" stroke-width="10" stroke="#c472d1" fill="none" opacity="0.615" transform="rotate(50, 400, 400)"></polygon><polygon points="577.7500122070312,359.12499694824214 386.57501220703125,741.4749969482422 768.9250122070313,741.4749969482422" stroke-width="10.6" stroke="#bd76d6" fill="none" opacity="0.6535" transform="rotate(45, 400, 400)"></polygon><polygon points="557.9999938964844,346.9999938964844 371.3999938964844,720.1999938964843 744.5999938964844,720.1999938964843" stroke-width="11.2" stroke="#b57adb" fill="none" opacity="0.692" transform="rotate(40, 400, 400)"></polygon><polygon points="538.2500061035156,334.8750061035156 356.2250061035156,698.9250061035157 720.2750061035156,698.9250061035157" stroke-width="11.8" stroke="#ae7ee0" fill="none" opacity="0.7304999999999999" transform="rotate(35, 400, 400)"></polygon><polygon points="518.4999877929688,322.75000305175786 341.04998779296875,677.6500030517578 695.9499877929687,677.6500030517578" stroke-width="12.4" stroke="#a682e4" fill="none" opacity="0.769" transform="rotate(30, 400, 400)"></polygon><polygon points="498.75,310.625 325.875,656.375 671.625,656.375" stroke-width="13" stroke="#9e86e9" fill="none" opacity="0.8075" transform="rotate(25, 400, 400)"></polygon><polygon points="479.00001220703126,298.4999969482422 310.70001220703125,635.0999969482423 647.3000122070313,635.0999969482423" stroke-width="13.6" stroke="#9589ee" fill="none" opacity="0.846" transform="rotate(20, 400, 400)"></polygon><polygon points="459.2499938964844,286.3749938964844 295.5249938964844,613.8249938964843 622.9749938964844,613.8249938964843" stroke-width="14.2" stroke="#8c8df2" fill="none" opacity="0.8845" transform="rotate(15, 400, 400)"></polygon><polygon points="439.5000061035156,274.25000610351566 280.3500061035156,592.5500061035157 598.6500061035156,592.5500061035157" stroke-width="14.799999999999999" stroke="#8290f6" fill="none" opacity="0.9229999999999999" transform="rotate(10, 400, 400)"></polygon><polygon points="419.74998779296874,262.1250030517578 265.17498779296875,571.2750030517577 574.3249877929687,571.2750030517577" stroke-width="15.4" stroke="#7794fb" fill="none" opacity="0.9615" transform="rotate(5, 400, 400)"></polygon><polygon points="400,250 250,550 550,550" stroke-width="16" stroke="#6b97ff" fill="none" opacity="1" transform="rotate(0, 400, 400)"></polygon></g></svg>